<?xml version="1.0" standalone="no"?><!DOCTYPE svg PUBLIC "-//W3C//DTD SVG 1.1//EN" "http://www.w3.org/Graphics/SVG/1.1/DTD/svg11.dtd"><svg t="1715678699778" class="icon" viewBox="0 0 1024 1024" version="1.1" xmlns="http://www.w3.org/2000/svg" p-id="800" xmlns:xlink="http://www.w3.org/1999/xlink" width="200" height="200"><path d="M425.73 847.58c-11.91 0-23.31-5.49-30.81-15.32L273.04 672.39a38.969 38.969 0 0 0-24.65-14.87l-80.57-13.51c-18.45-3.09-32.44-17-35.65-35.42-3.21-18.43 5.26-36.24 21.57-45.39l644.84-361.64c19.41-10.89 42.48-9.28 60.19 4.2s25.41 35.28 20.09 56.89L768.83 709.58c-4.28 17.37-15.69 32.32-31.32 41.03-15.63 8.7-34.35 10.53-51.37 5.02L482.2 689.58c-0.99-0.32-1.93-0.2-2.8 0.37-0.87 0.56-1.37 1.37-1.49 2.4l-13.47 120.66c-1.77 15.87-12.86 28.88-28.25 33.14-3.47 0.96-6.99 1.43-10.47 1.43zM179.51 600.35l76.33 12.79c21.16 3.55 39.99 14.9 53 31.97l112.59 147.68 11.77-105.43c1.62-14.48 9.56-27.31 21.8-35.21 12.24-7.9 27.21-9.86 41.07-5.37l203.94 66.05c5.25 1.7 10.79 1.16 15.61-1.53s8.2-7.11 9.52-12.47L835.17 251.9c1.36-5.53-1.7-8.84-3.65-10.32-1.95-1.48-5.95-3.55-10.92-0.76L179.51 600.35z m630.08-379.16z" fill="#ffffff" p-id="801"></path><path d="M462.26 696.54c-5.31 0-10.64-1.87-14.93-5.67-9.29-8.25-10.14-22.47-1.89-31.76L715.1 355.25c8.25-9.29 22.47-10.14 31.76-1.89 9.29 8.25 10.14 22.47 1.89 31.76L479.09 688.98a22.461 22.461 0 0 1-16.84 7.57zM300.29 653.37c-6.94 0-13.79-3.2-18.19-9.24-7.33-10.04-5.13-24.11 4.91-31.44l97.77-71.35c10.04-7.32 24.11-5.12 31.44 4.91 7.33 10.04 5.13 24.11-4.91 31.44l-97.77 71.35c-4 2.92-8.64 4.33-13.24 4.33zM434.62 845.1c-5.94 0-11.87-2.34-16.29-6.98-8.57-9-8.23-23.24 0.77-31.81L549.49 682.1c9-8.57 23.24-8.23 31.81 0.77s8.23 23.24-0.77 31.81L450.14 838.89a22.43 22.43 0 0 1-15.52 6.21z" fill="#ffffff" p-id="802"></path></svg>