<?xml version="1.0" standalone="no"?><!DOCTYPE svg PUBLIC "-//W3C//DTD SVG 1.1//EN" "http://www.w3.org/Graphics/SVG/1.1/DTD/svg11.dtd"><svg t="1715678776692" class="icon" viewBox="0 0 1024 1024" version="1.1" xmlns="http://www.w3.org/2000/svg" p-id="1174" xmlns:xlink="http://www.w3.org/1999/xlink" width="200" height="200"><path d="M298.73 696.29c-6.71 0-13.35-2.99-17.78-8.7-18.59-23.93-33.31-50.62-43.77-79.34-26.67-73.28-23.21-152.56 9.75-223.24s91.46-124.29 164.74-150.96c51.47-18.73 106.86-22.65 160.19-11.34 51.85 11 99.75 35.85 138.53 71.86 28.4 26.38 50.93 57.7 66.96 93.09 5.13 11.32 0.11 24.65-11.21 29.78-11.32 5.12-24.65 0.11-29.78-11.21-13.55-29.93-32.6-56.4-56.6-78.69-32.82-30.48-73.36-51.51-117.25-60.82-45.08-9.56-91.92-6.24-135.46 9.61-61.99 22.56-111.47 67.91-139.35 127.69-27.88 59.78-30.81 126.84-8.24 188.83 8.85 24.32 21.3 46.9 37.02 67.13 7.62 9.81 5.85 23.95-3.97 31.57-4.1 3.19-8.96 4.73-13.79 4.73zM511.76 800.43c-7.26 0-14.53-0.27-21.82-0.82-39.92-2.98-78.22-13.94-113.83-32.57-11.01-5.76-15.27-19.36-9.51-30.37 5.76-11.01 19.36-15.27 30.37-9.51 30.14 15.77 62.55 25.04 96.32 27.57 34.94 2.61 69.49-2.2 102.7-14.29 47.53-17.3 88.02-48.18 117.09-89.32 28.43-40.22 44.12-87.39 45.39-136.42 0.32-12.42 10.65-22.23 23.07-21.91 12.42 0.32 22.23 10.65 21.91 23.08-1.5 57.96-20.05 113.71-53.63 161.23-34.39 48.66-82.26 85.18-138.44 105.63-32.32 11.76-65.74 17.69-99.62 17.69z" fill="#ffffff" p-id="1175"></path><path d="M262.19 702.56c-73.34 0-118.8-18.95-132.05-55.34-14.63-40.2 14.52-89.36 84.3-142.17 9.91-7.5 24.02-5.55 31.52 4.36s5.55 24.02-4.36 31.52c-26.92 20.38-47.35 40.37-59.09 57.81-9.26 13.76-12.84 25.51-10.08 33.09 2.76 7.58 13.05 14.28 28.99 18.87 20.21 5.82 48.71 7.99 82.43 6.3 73.27-3.69 165.34-24.54 259.24-58.71 93.9-34.18 177.83-77.38 236.33-121.66 26.92-20.37 47.35-40.37 59.09-57.81 9.26-13.76 12.84-25.51 10.08-33.09-2.79-7.67-13.28-14.43-29.52-19.02-11.96-3.38-18.91-15.82-15.53-27.77 3.38-11.96 15.82-18.91 27.77-15.53 31.42 8.89 51.46 24.68 59.56 46.93 14.63 40.2-14.52 89.36-84.3 142.17-61.98 46.91-150.09 92.39-248.09 128.06s-194.73 57.47-272.37 61.37c-8.27 0.42-16.25 0.62-23.92 0.62z" fill="#ffffff" p-id="1176"></path><path d="M593.45 410.67m-36.69 0a36.69 36.69 0 1 0 73.38 0 36.69 36.69 0 1 0-73.38 0Z" fill="#ffffff" p-id="1177"></path><path d="M520.6 510.1m-25.52 0a25.52 25.52 0 1 0 51.04 0 25.52 25.52 0 1 0-51.04 0Z" fill="#ffffff" p-id="1178"></path></svg>