<?xml version="1.0" standalone="no"?><!DOCTYPE svg PUBLIC "-//W3C//DTD SVG 1.1//EN" "http://www.w3.org/Graphics/SVG/1.1/DTD/svg11.dtd"><svg t="1715755119628" class="icon" viewBox="0 0 1024 1024" version="1.1" xmlns="http://www.w3.org/2000/svg" p-id="2428" xmlns:xlink="http://www.w3.org/1999/xlink" width="200" height="200"><path d="M512 119c14.24 0 28.48 7.4 35.83 22.21l96.36 194.08c6.56 13.21 19.24 22.37 33.91 24.49l205.28 29.65c36.94 5.34 51.7 50.45 24.97 76.35L759.8 609.72c-10.61 10.28-15.46 25.1-12.95 39.62l35.07 203.23c4.99 28.93-18.14 52.43-44.39 52.43-6.93 0-14.07-1.64-20.97-5.24l-186.02-97.21a40.055 40.055 0 0 0-18.53-4.55c-6.36 0-12.73 1.52-18.53 4.55l-186.02 97.21c-6.9 3.61-14.05 5.24-20.97 5.24-26.25 0-49.38-23.5-44.39-52.43l35.07-203.23c2.51-14.52-2.34-29.34-12.95-39.62L115.65 465.78c-26.73-25.9-11.98-71.02 24.96-76.35l205.28-29.65c14.67-2.12 27.35-11.28 33.91-24.49l96.36-194.08C483.52 126.4 497.76 119 512 119z m0-100c-25.16 0-49.85 6.73-71.4 19.48-23.22 13.73-41.89 33.88-54 58.26l-83.5 168.18-176.78 25.53c-27.99 4.04-53.9 15.93-74.93 34.37-19.61 17.2-34.24 39.46-42.31 64.4-8.05 24.86-9.25 51.39-3.48 76.73 6.2 27.23 20.2 52 40.47 71.65l127.56 123.6-30.09 174.37c-7.27 42.13 4.3 84.99 31.74 117.57 13.33 15.83 30.27 28.9 48.99 37.8 19.36 9.2 40.87 14.07 62.2 14.07 23.22 0 46.49-5.75 67.29-16.62L512 905.69l158.24 82.69c20.8 10.87 44.07 16.62 67.29 16.62 21.33 0 42.84-4.87 62.2-14.07 18.72-8.9 35.66-21.97 48.99-37.8 27.44-32.58 39.01-75.43 31.74-117.56L850.37 661.2l127.56-123.6c20.28-19.65 34.269-44.42 40.469-71.65 5.77-25.33 4.56-51.86-3.48-76.73-8.07-24.93-22.699-47.2-42.309-64.4-21.03-18.44-46.94-30.33-74.93-34.37L720.9 264.92 637.4 96.74c-12.11-24.38-30.78-44.53-54-58.26C561.85 25.73 537.16 19 512 19z" fill="rgba(0,0,0,0.6)" p-id="2429"></path></svg>