<?xml version="1.0" standalone="no"?><!DOCTYPE svg PUBLIC "-//W3C//DTD SVG 1.1//EN" "http://www.w3.org/Graphics/SVG/1.1/DTD/svg11.dtd"><svg t="1715690712966" class="icon" viewBox="0 0 1024 1024" version="1.1" xmlns="http://www.w3.org/2000/svg" p-id="5703" xmlns:xlink="http://www.w3.org/1999/xlink" width="200" height="200"><path d="M498.34 855.21c-14.13 0-28.25-2.58-41.7-7.75L344.89 804.5a65.5 65.5 0 0 0-47.1 0l-94.07 36.17c-17.71 6.81-37.28 2.95-51.08-10.08-13.8-13.02-18.78-32.34-13-50.41l90.95-284.51c6.38-19.96 21.26-35.72 40.82-43.24l76.73-29.5a84.62 84.62 0 0 1 60.83 0l89.36 34.36 24.73-9.51c11.6-4.46 24.62 1.33 29.08 12.93 4.46 11.6-1.33 24.62-12.93 29.08L506.4 502.4c-5.2 2-10.95 2-16.15 0l-97.44-37.46a39.65 39.65 0 0 0-28.53 0l-76.73 29.5c-6.76 2.6-11.9 8.04-14.1 14.94L182.5 793.89c-0.18 0.57-0.74 2.32 1.03 3.98 1.77 1.67 3.48 1.01 4.04 0.8l94.07-36.17c25.6-9.84 53.8-9.84 79.4 0l111.75 42.96a71.126 71.126 0 0 0 51.1 0l111.75-42.96c25.6-9.84 53.8-9.84 79.4 0l94.07 36.17c0.56 0.22 2.27 0.87 4.04-0.8s1.21-3.41 1.03-3.98l-63.66-199.15c-3.78-11.84 2.74-24.5 14.58-28.28 11.84-3.78 24.5 2.74 28.28 14.58l63.66 199.15c5.78 18.07 0.8 37.39-13 50.41-13.8 13.02-33.37 16.88-51.08 10.08l-94.07-36.17a65.5 65.5 0 0 0-47.1 0l-111.75 42.96a116.092 116.092 0 0 1-41.7 7.75z" fill="#f8e5e5" p-id="5704"></path><path d="M702.29 561.47c-17.94 0-35.96-7.01-51.1-21.05-6.13-5.61-125.36-116.29-125.36-228.72 0-46.65 18.45-90.48 51.94-123.42 33.38-32.82 77.72-50.9 124.85-50.9h0.39c46.8 0 91.03 18.05 124.5 50.85 33.04 32.37 51.99 77.37 51.99 123.47 0 116.56-116.93 220.42-126.55 228.77-14.86 13.99-32.73 21-50.66 21z m0.38-379.09c-35.31 0-68.43 13.49-93.34 37.99-24.83 24.41-38.5 56.85-38.5 91.33 0 47.54 29.46 97.58 54.18 131.19 27.9 37.94 56.34 64.12 56.62 64.38 0.04 0.04 0.09 0.08 0.13 0.12 13.1 12.17 27.88 12.21 40.56 0.12 0.29-0.28 0.59-0.55 0.9-0.81 1.1-0.94 111.29-96.82 111.29-194.99 0-34.08-14.02-67.36-38.48-91.32-25.01-24.51-58.05-38-93.06-38h-0.29z" fill="#f8e5e5" p-id="5705"></path><path d="M702.85 400.53c-47.51 0-86.15-38.65-86.15-86.15s38.65-86.15 86.15-86.15S789 266.88 789 314.38s-38.65 86.15-86.15 86.15z m0-127.31c-22.69 0-41.15 18.46-41.15 41.15s18.46 41.15 41.15 41.15S744 337.06 744 314.37s-18.46-41.15-41.15-41.15zM675.59 793.83c-10.77 0-20.29-7.75-22.15-18.73l-27.42-161c-2.09-12.25 6.15-23.87 18.4-25.96 12.25-2.09 23.87 6.15 25.96 18.4l27.42 161c2.09 12.25-6.15 23.87-18.4 25.96-1.28 0.22-2.55 0.32-3.8 0.32zM321.36 793.83c-1.26 0-2.53-0.11-3.81-0.32-12.25-2.09-20.48-13.72-18.39-25.97l55-322c2.09-12.25 13.72-20.48 25.97-18.39 12.25 2.09 20.48 13.72 18.39 25.97l-55 322c-1.87 10.97-11.39 18.72-22.15 18.72zM498.34 847.83c-12.43 0-22.5-10.07-22.5-22.5v-344c0-12.43 10.07-22.5 22.5-22.5s22.5 10.07 22.5 22.5v344c0 12.43-10.07 22.5-22.5 22.5z" fill="#f8e5e5" p-id="5706"></path></svg>