<?xml version="1.0" standalone="no"?><!DOCTYPE svg PUBLIC "-//W3C//DTD SVG 1.1//EN" "http://www.w3.org/Graphics/SVG/1.1/DTD/svg11.dtd"><svg t="1715679002570" class="icon" viewBox="0 0 1024 1024" version="1.1" xmlns="http://www.w3.org/2000/svg" p-id="4599" xmlns:xlink="http://www.w3.org/1999/xlink" width="200" height="200"><path d="M362.666667 533.333333a128 128 0 0 1 127.786666 120.490667l0.213334 7.509333v128a128 128 0 0 1-120.490667 127.786667L362.666667 917.333333h-128a128 128 0 0 1-127.786667-120.490666L106.666667 789.333333v-128a128 128 0 0 1 120.490666-127.786666L234.666667 533.333333h128z m426.666666 0a128 128 0 0 1 127.786667 120.490667l0.213333 7.509333v128a128 128 0 0 1-120.490666 127.786667l-7.509334 0.213333h-128a128 128 0 0 1-127.786666-120.490666L533.333333 789.333333v-128a128 128 0 0 1 120.490667-127.786666l7.509333-0.213334h128z m-426.666666 85.333334h-128a42.666667 42.666667 0 0 0-42.368 37.674666L192 661.333333v128a42.666667 42.666667 0 0 0 37.674667 42.368l4.992 0.298667h128a42.666667 42.666667 0 0 0 42.368-37.674667L405.333333 789.333333v-128a42.666667 42.666667 0 0 0-37.674666-42.368L362.666667 618.666667z m426.666666 0h-128a42.666667 42.666667 0 0 0-42.368 37.674666l-0.298666 4.992v128a42.666667 42.666667 0 0 0 37.674666 42.368l4.992 0.298667h128a42.666667 42.666667 0 0 0 42.368-37.674667l0.298667-4.992v-128a42.666667 42.666667 0 0 0-37.674667-42.368L789.333333 618.666667zM725.333333 106.666667a192 192 0 1 1 0 384 192 192 0 0 1 0-384z m-362.666666 0a128 128 0 0 1 127.786666 120.490666l0.213334 7.509334v128a128 128 0 0 1-120.490667 127.786666L362.666667 490.666667h-128a128 128 0 0 1-127.786667-120.490667L106.666667 362.666667v-128a128 128 0 0 1 120.490666-127.786667L234.666667 106.666667h128z m362.666666 85.333333a106.666667 106.666667 0 1 0 0 213.333333 106.666667 106.666667 0 0 0 0-213.333333z m-362.666666 0h-128a42.666667 42.666667 0 0 0-42.368 37.674667L192 234.666667v128a42.666667 42.666667 0 0 0 37.674667 42.368L234.666667 405.333333h128a42.666667 42.666667 0 0 0 42.368-37.674666L405.333333 362.666667v-128a42.666667 42.666667 0 0 0-37.674666-42.368L362.666667 192z" fill="#f8e5e5" p-id="4600"></path></svg>