<?xml version="1.0" standalone="no"?><!DOCTYPE svg PUBLIC "-//W3C//DTD SVG 1.1//EN" "http://www.w3.org/Graphics/SVG/1.1/DTD/svg11.dtd"><svg t="1715758440128" class="icon" viewBox="0 0 1024 1024" version="1.1" xmlns="http://www.w3.org/2000/svg" p-id="1139" xmlns:xlink="http://www.w3.org/1999/xlink" width="200" height="200"><path d="M371.32 640c-0.202-0.169-0.349-0.375-0.556-0.539-68.493-54.162-97.717-109.608-97.717-185.393 0-17.251-13.982-31.237-31.237-31.237s-31.237 13.987-31.237 31.237c0 83.274 30.083 151.038 94.031 210.831-97.33 76.289-151.36 154.48-177.765 255.928-4.342 16.696 5.664 33.76 22.36 38.101a31.58 31.58 0 0 0 7.89 1.017c13.88 0 26.55-9.324 30.21-23.376 25.167-96.706 80.646-169.907 185.49-244.771 14.043-10.026 17.296-29.534 7.271-43.571-2.423-3.396-5.42-6.128-8.74-8.228zM898.081 920.726c-26.666-101.043-79.924-178.588-175.113-253.588 65.422-59.791 96.187-128.296 96.187-213.07 0-17.25-13.982-31.236-31.237-31.236s-31.237 13.987-31.237 31.237c0 75.748-30.54 133.269-98.85 186.244-4.272 2.205-8.15 5.302-11.131 9.484-10.027 14.038-6.772 33.545 7.27 43.572 104.581 74.68 157.812 145.167 183.71 243.301 3.692 14.012 16.34 23.275 30.18 23.275 2.634 0 5.318-0.336 7.992-1.047 16.677-4.404 26.631-21.486 22.23-38.172zM237.548 388.711c16.95-2.934 28.33-19.08 25.461-36.047-0.152-0.88-14.225-88.505 39.961-152.62 40.989-48.509 111.282-73.1 208.928-73.1 97.726 0 168.193 24.637 209.456 73.226 54.492 64.161 40.867 151.766 40.734 152.529-2.919 17.001 8.49 33.154 25.502 36.077 1.79 0.31 3.569 0.457 5.328 0.457 14.927 0 28.126-10.738 30.75-25.95 0.803-4.702 18.953-116.172-54.147-202.911-53.627-63.637-140.312-95.9-257.622-95.9-117.302 0-203.823 32.258-257.186 95.886-72.795 86.806-54.074 198.368-53.24 203.075 2.998 16.95 19.186 28.237 36.075 25.278z" fill="#c83a3a80" p-id="1140"></path><path d="M401.406 366.916c-17.256 0-31.237 13.986-31.237 31.237v33.321c0 17.25 13.981 31.236 31.237 31.236s31.237-13.986 31.237-31.236v-33.32c0-17.252-13.982-31.238-31.237-31.238zM623.541 366.916c-17.256 0-31.237 13.986-31.237 31.237v33.321c0 17.25 13.981 31.236 31.237 31.236s31.237-13.986 31.237-31.236v-33.32c0-17.252-13.98-31.238-31.237-31.238zM589.505 498.987c-14.317-9.41-33.586-5.4-43.164 8.76-0.132 0.193-13.615 19.756-34.175 19.756-19.99 0-32.437-18.12-33.271-19.375-9.182-14.419-28.288-18.817-42.839-9.762-14.652 9.106-19.157 28.37-10.045 43.022 11.215 18.044 41.975 48.589 86.155 48.589 43.967 0 75.112-30.317 86.583-48.234 9.222-14.398 5.032-33.356-9.244-42.756z" fill="#c83a3a80" p-id="1141"></path></svg>